<svg id="SvgjsSvg1034" width="288" height="288" xmlns="http://www.w3.org/2000/svg" version="1.1" xmlns:xlink="http://www.w3.org/1999/xlink" xmlns:svgjs="http://svgjs.com/svgjs"><defs id="SvgjsDefs1035"></defs><g id="SvgjsG1036"><svg xmlns="http://www.w3.org/2000/svg" fill="none" viewBox="0 0 75 75" width="288" height="288"><g clip-path="url(#a)" fill="#7e257f" class="color000 svgShape"><g filter="url(#b)" fill="#7e257f" class="color000 svgShape"><path fill="#ec1183" d="M18.4499 12.2707C18.3502 12.9528 17.7208 13.4815 17.0331 13.4623C15.7421 13.4239 14.4623 13.7115 13.3118 14.2984C12.1613 14.8853 11.1773 15.7527 10.4506 16.8204C9.72393 17.8881 9.278 19.1217 9.15403 20.4073C9.03006 21.6929 9.23205 22.989 9.74133 24.1758C11.2771 27.7627 15.2764 29.441 18.7972 28.5479C20.4779 28.1203 22.4598 28.2447 23.5651 29.5828L41.7461 51.6355C42.8282 52.9479 42.6097 54.8653 41.8938 56.4039L41.8448 56.5145C41.0123 58.375 40.953 60.49 41.6799 62.3943C42.4067 64.2986 43.8602 65.8362 45.7206 66.6689C49.5949 68.4035 53.5506 66.8733 55.2852 62.999C55.6057 62.2274 55.8093 61.4123 55.8893 60.5807C55.9306 60.2447 56.0982 59.937 56.3582 59.7201C56.6181 59.5032 56.9509 59.3934 57.2888 59.4131C58.5795 59.5116 60.0433 59.4068 61.1432 58.9362C62.071 58.5386 62.9115 57.962 63.6165 57.2395C64.3215 56.517 64.8773 55.6628 65.2521 54.7254C65.6269 53.7881 65.8134 52.7862 65.801 51.7768C65.7885 50.7674 65.5774 49.7703 65.1795 48.8425C63.6454 45.2601 59.6529 43.5781 56.1346 44.4673C54.4565 44.8908 52.4813 44.7628 51.378 43.427L33.1835 21.3581C32.1052 20.0504 32.3192 18.1368 33.0327 16.6001C33.3565 15.9058 33.5737 15.1667 33.6769 14.4077C33.9118 12.7119 33.5711 10.9863 32.7094 9.50702C32.1998 8.62418 31.519 7.8521 30.7068 7.23617C29.8946 6.62024 28.9674 6.17289 27.9799 5.9204C27.13 5.70141 26.2489 5.62896 25.3747 5.70614C24.2529 5.80578 23.1671 6.15183 22.1945 6.7196C21.3227 7.22392 20.5592 7.89552 19.9477 8.69582C19.3362 9.49611 18.8888 10.4093 18.6313 11.383C18.5517 11.6785 18.4913 11.9737 18.4499 12.2707Z" class="colorDCD4E1 svgShape"></path></g><path fill="url(#c)" d="M18.4499 12.2707C18.3502 12.9528 17.7208 13.4815 17.0331 13.4623C15.7421 13.4239 14.4623 13.7115 13.3118 14.2984C12.1613 14.8853 11.1773 15.7527 10.4506 16.8204C9.72393 17.8881 9.278 19.1217 9.15403 20.4073C9.03006 21.6929 9.23205 22.989 9.74133 24.1758C11.2771 27.7627 15.2764 29.441 18.7972 28.5479C20.4779 28.1203 22.4598 28.2447 23.5651 29.5828L41.7461 51.6355C42.8282 52.9479 42.6097 54.8653 41.8938 56.4039L41.8448 56.5145C41.0123 58.375 40.953 60.49 41.6799 62.3943C42.4067 64.2986 43.8602 65.8362 45.7206 66.6689C49.5949 68.4035 53.5506 66.8733 55.2852 62.999C55.6057 62.2274 55.8093 61.4123 55.8893 60.5807C55.9306 60.2447 56.0982 59.937 56.3582 59.7201C56.6181 59.5032 56.9509 59.3934 57.2888 59.4131C58.5795 59.5116 60.0433 59.4068 61.1432 58.9362C62.071 58.5386 62.9115 57.962 63.6165 57.2395C64.3215 56.517 64.8773 55.6628 65.2521 54.7254C65.6269 53.7881 65.8134 52.7862 65.801 51.7768C65.7885 50.7674 65.5774 49.7703 65.1795 48.8425C63.6454 45.2601 59.6529 43.5781 56.1346 44.4673C54.4565 44.8908 52.4813 44.7628 51.378 43.427L33.1835 21.3581C32.1052 20.0504 32.3192 18.1368 33.0327 16.6001C33.3565 15.9058 33.5737 15.1667 33.6769 14.4077C33.9118 12.7119 33.5711 10.9863 32.7094 9.50702C32.1998 8.62418 31.519 7.8521 30.7068 7.23617C29.8946 6.62024 28.9674 6.17289 27.9799 5.9204C27.13 5.70141 26.2489 5.62896 25.3747 5.70614C24.2529 5.80578 23.1671 6.15183 22.1945 6.7196C21.3227 7.22392 20.5592 7.89552 19.9477 8.69582C19.3362 9.49611 18.8888 10.4093 18.6313 11.383C18.5517 11.6785 18.4913 11.9737 18.4499 12.2707Z"></path><path fill="url(#d)" d="M18.4499 12.2707C18.3502 12.9528 17.7208 13.4815 17.0331 13.4623C15.7421 13.4239 14.4623 13.7115 13.3118 14.2984C12.1613 14.8853 11.1773 15.7527 10.4506 16.8204C9.72393 17.8881 9.278 19.1217 9.15403 20.4073C9.03006 21.6929 9.23205 22.989 9.74133 24.1758C11.2771 27.7627 15.2764 29.441 18.7972 28.5479C20.4779 28.1203 22.4598 28.2447 23.5651 29.5828L41.7461 51.6355C42.8282 52.9479 42.6097 54.8653 41.8938 56.4039L41.8448 56.5145C41.0123 58.375 40.953 60.49 41.6799 62.3943C42.4067 64.2986 43.8602 65.8362 45.7206 66.6689C49.5949 68.4035 53.5506 66.8733 55.2852 62.999C55.6057 62.2274 55.8093 61.4123 55.8893 60.5807C55.9306 60.2447 56.0982 59.937 56.3582 59.7201C56.6181 59.5032 56.9509 59.3934 57.2888 59.4131C58.5795 59.5116 60.0433 59.4068 61.1432 58.9362C62.071 58.5386 62.9115 57.962 63.6165 57.2395C64.3215 56.517 64.8773 55.6628 65.2521 54.7254C65.6269 53.7881 65.8134 52.7862 65.801 51.7768C65.7885 50.7674 65.5774 49.7703 65.1795 48.8425C63.6454 45.2601 59.6529 43.5781 56.1346 44.4673C54.4565 44.8908 52.4813 44.7628 51.378 43.427L33.1835 21.3581C32.1052 20.0504 32.3192 18.1368 33.0327 16.6001C33.3565 15.9058 33.5737 15.1667 33.6769 14.4077C33.9118 12.7119 33.5711 10.9863 32.7094 9.50702C32.1998 8.62418 31.519 7.8521 30.7068 7.23617C29.8946 6.62024 28.9674 6.17289 27.9799 5.9204C27.13 5.70141 26.2489 5.62896 25.3747 5.70614C24.2529 5.80578 23.1671 6.15183 22.1945 6.7196C21.3227 7.22392 20.5592 7.89552 19.9477 8.69582C19.3362 9.49611 18.8888 10.4093 18.6313 11.383C18.5517 11.6785 18.4913 11.9737 18.4499 12.2707Z"></path><path fill="url(#e)" d="M18.4499 12.2707C18.3502 12.9528 17.7208 13.4815 17.0331 13.4623C15.7421 13.4239 14.4623 13.7115 13.3118 14.2984C12.1613 14.8853 11.1773 15.7527 10.4506 16.8204C9.72393 17.8881 9.278 19.1217 9.15403 20.4073C9.03006 21.6929 9.23205 22.989 9.74133 24.1758C11.2771 27.7627 15.2764 29.441 18.7972 28.5479C20.4779 28.1203 22.4598 28.2447 23.5651 29.5828L41.7461 51.6355C42.8282 52.9479 42.6097 54.8653 41.8938 56.4039L41.8448 56.5145C41.0123 58.375 40.953 60.49 41.6799 62.3943C42.4067 64.2986 43.8602 65.8362 45.7206 66.6689C49.5949 68.4035 53.5506 66.8733 55.2852 62.999C55.6057 62.2274 55.8093 61.4123 55.8893 60.5807C55.9306 60.2447 56.0982 59.937 56.3582 59.7201C56.6181 59.5032 56.9509 59.3934 57.2888 59.4131C58.5795 59.5116 60.0433 59.4068 61.1432 58.9362C62.071 58.5386 62.9115 57.962 63.6165 57.2395C64.3215 56.517 64.8773 55.6628 65.2521 54.7254C65.6269 53.7881 65.8134 52.7862 65.801 51.7768C65.7885 50.7674 65.5774 49.7703 65.1795 48.8425C63.6454 45.2601 59.6529 43.5781 56.1346 44.4673C54.4565 44.8908 52.4813 44.7628 51.378 43.427L33.1835 21.3581C32.1052 20.0504 32.3192 18.1368 33.0327 16.6001C33.3565 15.9058 33.5737 15.1667 33.6769 14.4077C33.9118 12.7119 33.5711 10.9863 32.7094 9.50702C32.1998 8.62418 31.519 7.8521 30.7068 7.23617C29.8946 6.62024 28.9674 6.17289 27.9799 5.9204C27.13 5.70141 26.2489 5.62896 25.3747 5.70614C24.2529 5.80578 23.1671 6.15183 22.1945 6.7196C21.3227 7.22392 20.5592 7.89552 19.9477 8.69582C19.3362 9.49611 18.8888 10.4093 18.6313 11.383C18.5517 11.6785 18.4913 11.9737 18.4499 12.2707Z"></path><path fill="url(#f)" d="M18.4499 12.2707C18.3502 12.9528 17.7208 13.4815 17.0331 13.4623C15.7421 13.4239 14.4623 13.7115 13.3118 14.2984C12.1613 14.8853 11.1773 15.7527 10.4506 16.8204C9.72393 17.8881 9.278 19.1217 9.15403 20.4073C9.03006 21.6929 9.23205 22.989 9.74133 24.1758C11.2771 27.7627 15.2764 29.441 18.7972 28.5479C20.4779 28.1203 22.4598 28.2447 23.5651 29.5828L41.7461 51.6355C42.8282 52.9479 42.6097 54.8653 41.8938 56.4039L41.8448 56.5145C41.0123 58.375 40.953 60.49 41.6799 62.3943C42.4067 64.2986 43.8602 65.8362 45.7206 66.6689C49.5949 68.4035 53.5506 66.8733 55.2852 62.999C55.6057 62.2274 55.8093 61.4123 55.8893 60.5807C55.9306 60.2447 56.0982 59.937 56.3582 59.7201C56.6181 59.5032 56.9509 59.3934 57.2888 59.4131C58.5795 59.5116 60.0433 59.4068 61.1432 58.9362C62.071 58.5386 62.9115 57.962 63.6165 57.2395C64.3215 56.517 64.8773 55.6628 65.2521 54.7254C65.6269 53.7881 65.8134 52.7862 65.801 51.7768C65.7885 50.7674 65.5774 49.7703 65.1795 48.8425C63.6454 45.2601 59.6529 43.5781 56.1346 44.4673C54.4565 44.8908 52.4813 44.7628 51.378 43.427L33.1835 21.3581C32.1052 20.0504 32.3192 18.1368 33.0327 16.6001C33.3565 15.9058 33.5737 15.1667 33.6769 14.4077C33.9118 12.7119 33.5711 10.9863 32.7094 9.50702C32.1998 8.62418 31.519 7.8521 30.7068 7.23617C29.8946 6.62024 28.9674 6.17289 27.9799 5.9204C27.13 5.70141 26.2489 5.62896 25.3747 5.70614C24.2529 5.80578 23.1671 6.15183 22.1945 6.7196C21.3227 7.22392 20.5592 7.89552 19.9477 8.69582C19.3362 9.49611 18.8888 10.4093 18.6313 11.383C18.5517 11.6785 18.4913 11.9737 18.4499 12.2707Z"></path><path fill="url(#g)" d="M18.4499 12.2707C18.3502 12.9528 17.7208 13.4815 17.0331 13.4623C15.7421 13.4239 14.4623 13.7115 13.3118 14.2984C12.1613 14.8853 11.1773 15.7527 10.4506 16.8204C9.72393 17.8881 9.278 19.1217 9.15403 20.4073C9.03006 21.6929 9.23205 22.989 9.74133 24.1758C11.2771 27.7627 15.2764 29.441 18.7972 28.5479C20.4779 28.1203 22.4598 28.2447 23.5651 29.5828L41.7461 51.6355C42.8282 52.9479 42.6097 54.8653 41.8938 56.4039L41.8448 56.5145C41.0123 58.375 40.953 60.49 41.6799 62.3943C42.4067 64.2986 43.8602 65.8362 45.7206 66.6689C49.5949 68.4035 53.5506 66.8733 55.2852 62.999C55.6057 62.2274 55.8093 61.4123 55.8893 60.5807C55.9306 60.2447 56.0982 59.937 56.3582 59.7201C56.6181 59.5032 56.9509 59.3934 57.2888 59.4131C58.5795 59.5116 60.0433 59.4068 61.1432 58.9362C62.071 58.5386 62.9115 57.962 63.6165 57.2395C64.3215 56.517 64.8773 55.6628 65.2521 54.7254C65.6269 53.7881 65.8134 52.7862 65.801 51.7768C65.7885 50.7674 65.5774 49.7703 65.1795 48.8425C63.6454 45.2601 59.6529 43.5781 56.1346 44.4673C54.4565 44.8908 52.4813 44.7628 51.378 43.427L33.1835 21.3581C32.1052 20.0504 32.3192 18.1368 33.0327 16.6001C33.3565 15.9058 33.5737 15.1667 33.6769 14.4077C33.9118 12.7119 33.5711 10.9863 32.7094 9.50702C32.1998 8.62418 31.519 7.8521 30.7068 7.23617C29.8946 6.62024 28.9674 6.17289 27.9799 5.9204C27.13 5.70141 26.2489 5.62896 25.3747 5.70614C24.2529 5.80578 23.1671 6.15183 22.1945 6.7196C21.3227 7.22392 20.5592 7.89552 19.9477 8.69582C19.3362 9.49611 18.8888 10.4093 18.6313 11.383C18.5517 11.6785 18.4913 11.9737 18.4499 12.2707Z"></path><path fill="url(#h)" d="M18.4499 12.2707C18.3502 12.9528 17.7208 13.4815 17.0331 13.4623C15.7421 13.4239 14.4623 13.7115 13.3118 14.2984C12.1613 14.8853 11.1773 15.7527 10.4506 16.8204C9.72393 17.8881 9.278 19.1217 9.15403 20.4073C9.03006 21.6929 9.23205 22.989 9.74133 24.1758C11.2771 27.7627 15.2764 29.441 18.7972 28.5479C20.4779 28.1203 22.4598 28.2447 23.5651 29.5828L41.7461 51.6355C42.8282 52.9479 42.6097 54.8653 41.8938 56.4039L41.8448 56.5145C41.0123 58.375 40.953 60.49 41.6799 62.3943C42.4067 64.2986 43.8602 65.8362 45.7206 66.6689C49.5949 68.4035 53.5506 66.8733 55.2852 62.999C55.6057 62.2274 55.8093 61.4123 55.8893 60.5807C55.9306 60.2447 56.0982 59.937 56.3582 59.7201C56.6181 59.5032 56.9509 59.3934 57.2888 59.4131C58.5795 59.5116 60.0433 59.4068 61.1432 58.9362C62.071 58.5386 62.9115 57.962 63.6165 57.2395C64.3215 56.517 64.8773 55.6628 65.2521 54.7254C65.6269 53.7881 65.8134 52.7862 65.801 51.7768C65.7885 50.7674 65.5774 49.7703 65.1795 48.8425C63.6454 45.2601 59.6529 43.5781 56.1346 44.4673C54.4565 44.8908 52.4813 44.7628 51.378 43.427L33.1835 21.3581C32.1052 20.0504 32.3192 18.1368 33.0327 16.6001C33.3565 15.9058 33.5737 15.1667 33.6769 14.4077C33.9118 12.7119 33.5711 10.9863 32.7094 9.50702C32.1998 8.62418 31.519 7.8521 30.7068 7.23617C29.8946 6.62024 28.9674 6.17289 27.9799 5.9204C27.13 5.70141 26.2489 5.62896 25.3747 5.70614C24.2529 5.80578 23.1671 6.15183 22.1945 6.7196C21.3227 7.22392 20.5592 7.89552 19.9477 8.69582C19.3362 9.49611 18.8888 10.4093 18.6313 11.383C18.5517 11.6785 18.4913 11.9737 18.4499 12.2707Z"></path><path fill="url(#i)" d="M18.4499 12.2707C18.3502 12.9528 17.7208 13.4815 17.0331 13.4623C15.7421 13.4239 14.4623 13.7115 13.3118 14.2984C12.1613 14.8853 11.1773 15.7527 10.4506 16.8204C9.72393 17.8881 9.278 19.1217 9.15403 20.4073C9.03006 21.6929 9.23205 22.989 9.74133 24.1758C11.2771 27.7627 15.2764 29.441 18.7972 28.5479C20.4779 28.1203 22.4598 28.2447 23.5651 29.5828L41.7461 51.6355C42.8282 52.9479 42.6097 54.8653 41.8938 56.4039L41.8448 56.5145C41.0123 58.375 40.953 60.49 41.6799 62.3943C42.4067 64.2986 43.8602 65.8362 45.7206 66.6689C49.5949 68.4035 53.5506 66.8733 55.2852 62.999C55.6057 62.2274 55.8093 61.4123 55.8893 60.5807C55.9306 60.2447 56.0982 59.937 56.3582 59.7201C56.6181 59.5032 56.9509 59.3934 57.2888 59.4131C58.5795 59.5116 60.0433 59.4068 61.1432 58.9362C62.071 58.5386 62.9115 57.962 63.6165 57.2395C64.3215 56.517 64.8773 55.6628 65.2521 54.7254C65.6269 53.7881 65.8134 52.7862 65.801 51.7768C65.7885 50.7674 65.5774 49.7703 65.1795 48.8425C63.6454 45.2601 59.6529 43.5781 56.1346 44.4673C54.4565 44.8908 52.4813 44.7628 51.378 43.427L33.1835 21.3581C32.1052 20.0504 32.3192 18.1368 33.0327 16.6001C33.3565 15.9058 33.5737 15.1667 33.6769 14.4077C33.9118 12.7119 33.5711 10.9863 32.7094 9.50702C32.1998 8.62418 31.519 7.8521 30.7068 7.23617C29.8946 6.62024 28.9674 6.17289 27.9799 5.9204C27.13 5.70141 26.2489 5.62896 25.3747 5.70614C24.2529 5.80578 23.1671 6.15183 22.1945 6.7196C21.3227 7.22392 20.5592 7.89552 19.9477 8.69582C19.3362 9.49611 18.8888 10.4093 18.6313 11.383C18.5517 11.6785 18.4913 11.9737 18.4499 12.2707Z"></path><path fill="url(#j)" d="M18.4499 12.2707C18.3502 12.9528 17.7208 13.4815 17.0331 13.4623C15.7421 13.4239 14.4623 13.7115 13.3118 14.2984C12.1613 14.8853 11.1773 15.7527 10.4506 16.8204C9.72393 17.8881 9.278 19.1217 9.15403 20.4073C9.03006 21.6929 9.23205 22.989 9.74133 24.1758C11.2771 27.7627 15.2764 29.441 18.7972 28.5479C20.4779 28.1203 22.4598 28.2447 23.5651 29.5828L41.7461 51.6355C42.8282 52.9479 42.6097 54.8653 41.8938 56.4039L41.8448 56.5145C41.0123 58.375 40.953 60.49 41.6799 62.3943C42.4067 64.2986 43.8602 65.8362 45.7206 66.6689C49.5949 68.4035 53.5506 66.8733 55.2852 62.999C55.6057 62.2274 55.8093 61.4123 55.8893 60.5807C55.9306 60.2447 56.0982 59.937 56.3582 59.7201C56.6181 59.5032 56.9509 59.3934 57.2888 59.4131C58.5795 59.5116 60.0433 59.4068 61.1432 58.9362C62.071 58.5386 62.9115 57.962 63.6165 57.2395C64.3215 56.517 64.8773 55.6628 65.2521 54.7254C65.6269 53.7881 65.8134 52.7862 65.801 51.7768C65.7885 50.7674 65.5774 49.7703 65.1795 48.8425C63.6454 45.2601 59.6529 43.5781 56.1346 44.4673C54.4565 44.8908 52.4813 44.7628 51.378 43.427L33.1835 21.3581C32.1052 20.0504 32.3192 18.1368 33.0327 16.6001C33.3565 15.9058 33.5737 15.1667 33.6769 14.4077C33.9118 12.7119 33.5711 10.9863 32.7094 9.50702C32.1998 8.62418 31.519 7.8521 30.7068 7.23617C29.8946 6.62024 28.9674 6.17289 27.9799 5.9204C27.13 5.70141 26.2489 5.62896 25.3747 5.70614C24.2529 5.80578 23.1671 6.15183 22.1945 6.7196C21.3227 7.22392 20.5592 7.89552 19.9477 8.69582C19.3362 9.49611 18.8888 10.4093 18.6313 11.383C18.5517 11.6785 18.4913 11.9737 18.4499 12.2707Z"></path><path fill="url(#k)" d="M18.4499 12.2707C18.3502 12.9528 17.7208 13.4815 17.0331 13.4623C15.7421 13.4239 14.4623 13.7115 13.3118 14.2984C12.1613 14.8853 11.1773 15.7527 10.4506 16.8204C9.72393 17.8881 9.278 19.1217 9.15403 20.4073C9.03006 21.6929 9.23205 22.989 9.74133 24.1758C11.2771 27.7627 15.2764 29.441 18.7972 28.5479C20.4779 28.1203 22.4598 28.2447 23.5651 29.5828L41.7461 51.6355C42.8282 52.9479 42.6097 54.8653 41.8938 56.4039L41.8448 56.5145C41.0123 58.375 40.953 60.49 41.6799 62.3943C42.4067 64.2986 43.8602 65.8362 45.7206 66.6689C49.5949 68.4035 53.5506 66.8733 55.2852 62.999C55.6057 62.2274 55.8093 61.4123 55.8893 60.5807C55.9306 60.2447 56.0982 59.937 56.3582 59.7201C56.6181 59.5032 56.9509 59.3934 57.2888 59.4131C58.5795 59.5116 60.0433 59.4068 61.1432 58.9362C62.071 58.5386 62.9115 57.962 63.6165 57.2395C64.3215 56.517 64.8773 55.6628 65.2521 54.7254C65.6269 53.7881 65.8134 52.7862 65.801 51.7768C65.7885 50.7674 65.5774 49.7703 65.1795 48.8425C63.6454 45.2601 59.6529 43.5781 56.1346 44.4673C54.4565 44.8908 52.4813 44.7628 51.378 43.427L33.1835 21.3581C32.1052 20.0504 32.3192 18.1368 33.0327 16.6001C33.3565 15.9058 33.5737 15.1667 33.6769 14.4077C33.9118 12.7119 33.5711 10.9863 32.7094 9.50702C32.1998 8.62418 31.519 7.8521 30.7068 7.23617C29.8946 6.62024 28.9674 6.17289 27.9799 5.9204C27.13 5.70141 26.2489 5.62896 25.3747 5.70614C24.2529 5.80578 23.1671 6.15183 22.1945 6.7196C21.3227 7.22392 20.5592 7.89552 19.9477 8.69582C19.3362 9.49611 18.8888 10.4093 18.6313 11.383C18.5517 11.6785 18.4913 11.9737 18.4499 12.2707Z"></path><path fill="url(#l)" d="M18.4499 12.2707C18.3502 12.9528 17.7208 13.4815 17.0331 13.4623C15.7421 13.4239 14.4623 13.7115 13.3118 14.2984C12.1613 14.8853 11.1773 15.7527 10.4506 16.8204C9.72393 17.8881 9.278 19.1217 9.15403 20.4073C9.03006 21.6929 9.23205 22.989 9.74133 24.1758C11.2771 27.7627 15.2764 29.441 18.7972 28.5479C20.4779 28.1203 22.4598 28.2447 23.5651 29.5828L41.7461 51.6355C42.8282 52.9479 42.6097 54.8653 41.8938 56.4039L41.8448 56.5145C41.0123 58.375 40.953 60.49 41.6799 62.3943C42.4067 64.2986 43.8602 65.8362 45.7206 66.6689C49.5949 68.4035 53.5506 66.8733 55.2852 62.999C55.6057 62.2274 55.8093 61.4123 55.8893 60.5807C55.9306 60.2447 56.0982 59.937 56.3582 59.7201C56.6181 59.5032 56.9509 59.3934 57.2888 59.4131C58.5795 59.5116 60.0433 59.4068 61.1432 58.9362C62.071 58.5386 62.9115 57.962 63.6165 57.2395C64.3215 56.517 64.8773 55.6628 65.2521 54.7254C65.6269 53.7881 65.8134 52.7862 65.801 51.7768C65.7885 50.7674 65.5774 49.7703 65.1795 48.8425C63.6454 45.2601 59.6529 43.5781 56.1346 44.4673C54.4565 44.8908 52.4813 44.7628 51.378 43.427L33.1835 21.3581C32.1052 20.0504 32.3192 18.1368 33.0327 16.6001C33.3565 15.9058 33.5737 15.1667 33.6769 14.4077C33.9118 12.7119 33.5711 10.9863 32.7094 9.50702C32.1998 8.62418 31.519 7.8521 30.7068 7.23617C29.8946 6.62024 28.9674 6.17289 27.9799 5.9204C27.13 5.70141 26.2489 5.62896 25.3747 5.70614C24.2529 5.80578 23.1671 6.15183 22.1945 6.7196C21.3227 7.22392 20.5592 7.89552 19.9477 8.69582C19.3362 9.49611 18.8888 10.4093 18.6313 11.383C18.5517 11.6785 18.4913 11.9737 18.4499 12.2707Z"></path><g filter="url(#m)" fill="#7e257f" class="color000 svgShape"><path fill="#ec1183" d="M56.773 53.7681C54.0846 55.085 54.2752 58.2309 54.7074 59.6408L57.0693 58.301C56.091 56.8193 56.4649 54.6629 56.773 53.7681Z" class="colorA49CAA svgShape"></path></g><g filter="url(#n)" fill="#7e257f" class="color000 svgShape"><path fill="url(#o)" d="M17.0537 21.0813C17.414 18.2233 15.7835 15.1994 15.2172 14.4725L17.7275 14.0756C19.3084 17.97 17.9204 20.5264 17.0537 21.0813Z"></path></g></g><defs><radialGradient id="c" cx="0" cy="0" r="1" gradientTransform="matrix(1.01283 9.10218 -9.12727 1.01563 21.982 11.212)" gradientUnits="userSpaceOnUse"><stop stop-color="#ec1183" class="stopColorFBFAFC svgShape"></stop><stop offset="1" stop-color="#ec1183" stop-opacity="0" class="stopColorE5E5E5 svgShape"></stop></radialGradient><radialGradient id="d" cx="0" cy="0" r="1" gradientTransform="rotate(26.049 -33.503 34.357) scale(6.46421 6.16167)" gradientUnits="userSpaceOnUse"><stop stop-color="#ec1183" class="stopColorFBFAFC svgShape"></stop><stop offset="1" stop-color="#ec1183" stop-opacity="0" class="stopColorE5E5E5 svgShape"></stop></radialGradient><radialGradient id="e" cx="0" cy="0" r="1" gradientTransform="matrix(4.94078 15.80325 -3.42103 1.06956 16.29 7.18)" gradientUnits="userSpaceOnUse"><stop stop-color="#ec1183" class="stopColorFBFAFC svgShape"></stop><stop offset="1" stop-color="#ec1183" stop-opacity="0" class="stopColorE5E5E5 svgShape"></stop></radialGradient><radialGradient id="f" cx="0" cy="0" r="1" gradientTransform="matrix(4.75343 -14.74284 9.01437 2.90644 15.372 34.399)" gradientUnits="userSpaceOnUse"><stop stop-color="#ec1183" class="stopColorBDA5CC svgShape"></stop><stop offset="1" stop-color="#ec1183" stop-opacity="0" class="stopColorBDA5CC svgShape"></stop></radialGradient><radialGradient id="g" cx="0" cy="0" r="1" gradientTransform="matrix(-6.9381 -.00012 .00012 -6.59743 67.02 49.52)" gradientUnits="userSpaceOnUse"><stop stop-color="#ec1183" class="stopColor9B9A9B svgShape"></stop><stop offset="1" stop-color="#ec1183" stop-opacity="0" class="stopColor9B9A9B svgShape"></stop></radialGradient><radialGradient id="h" cx="0" cy="0" r="1" gradientTransform="matrix(1.8942 -5.82197 4.2603 1.3861 56.011 48.86)" gradientUnits="userSpaceOnUse"><stop stop-color="#ec1183" class="stopColorE8E3EB svgShape"></stop><stop offset="1" stop-color="#ec1183" stop-opacity="0" class="stopColorE8E3EB svgShape"></stop></radialGradient><radialGradient id="i" cx="0" cy="0" r="1" gradientTransform="matrix(-.69642 -9.40675 6.96072 -.51533 60.413 61.357)" gradientUnits="userSpaceOnUse"><stop stop-color="#ec1183" class="stopColorC6AED5 svgShape"></stop><stop offset="1" stop-color="#ec1183" stop-opacity="0" class="stopColorC6AED5 svgShape"></stop></radialGradient><radialGradient id="j" cx="0" cy="0" r="1" gradientTransform="matrix(11.11524 -.51358 .28524 6.17325 40.562 56.294)" gradientUnits="userSpaceOnUse"><stop offset=".289" stop-color="#ec1183" class="stopColorF5EEF9 svgShape"></stop><stop offset="1" stop-color="#ec1183" stop-opacity="0" class="stopColorF5EEF9 svgShape"></stop></radialGradient><radialGradient id="k" cx="0" cy="0" r="1" gradientTransform="matrix(-4.2597 51.2259 -51.72627 -4.3013 49.636 16.624)" gradientUnits="userSpaceOnUse"><stop offset=".857" stop-color="#ec1183" stop-opacity="0" class="stopColorD5BBE5 svgShape"></stop><stop offset="1" stop-color="#ec1183" class="stopColorD5BBE5 svgShape"></stop></radialGradient><radialGradient id="l" cx="0" cy="0" r="1" gradientTransform="matrix(-3.25657 -11.9212 5.66392 -1.54724 57.56 67.421)" gradientUnits="userSpaceOnUse"><stop stop-color="#ec1183" class="stopColorA199A7 svgShape"></stop><stop offset="1" stop-color="#ec1183" stop-opacity="0" class="stopColorA199A7 svgShape"></stop></radialGradient><filter id="b" width="61.683" height="66.702" x="7.369" y="3.176" color-interpolation-filters="sRGB" filterUnits="userSpaceOnUse"><feFlood flood-opacity="0" result="BackgroundImageFix"></feFlood><feColorMatrix in="SourceAlpha" result="hardAlpha" values="0 0 0 0 0 0 0 0 0 0 0 0 0 0 0 0 0 0 127 0"></feColorMatrix><feOffset dx=".75"></feOffset><feGaussianBlur stdDeviation="1.25"></feGaussianBlur><feComposite in2="hardAlpha" operator="out"></feComposite><feColorMatrix values="0 0 0 0 0.580392 0 0 0 0 0.568627 0 0 0 0 0.584314 0 0 0 1 0"></feColorMatrix><feBlend in2="BackgroundImageFix" result="effect1_dropShadow_876_402"></feBlend><feColorMatrix in="SourceAlpha" result="hardAlpha" values="0 0 0 0 0 0 0 0 0 0 0 0 0 0 0 0 0 0 127 0"></feColorMatrix><feOffset dy="-.75"></feOffset><feGaussianBlur stdDeviation=".75"></feGaussianBlur><feComposite in2="hardAlpha" operator="out"></feComposite><feColorMatrix values="0 0 0 0 0.756863 0 0 0 0 0.662745 0 0 0 0 0.815686 0 0 0 1 0"></feColorMatrix><feBlend in2="effect1_dropShadow_876_402" result="effect2_dropShadow_876_402"></feBlend><feBlend in="SourceGraphic" in2="effect2_dropShadow_876_402" result="shape"></feBlend></filter><filter id="m" width="4.616" height="7.873" x="53.453" y="52.768" color-interpolation-filters="sRGB" filterUnits="userSpaceOnUse"><feFlood flood-opacity="0" result="BackgroundImageFix"></feFlood><feBlend in="SourceGraphic" in2="BackgroundImageFix" result="shape"></feBlend><feGaussianBlur result="effect1_foregroundBlur_876_402" stdDeviation=".5"></feGaussianBlur></filter><filter id="n" width="5.231" height="9.006" x="14.217" y="13.076" color-interpolation-filters="sRGB" filterUnits="userSpaceOnUse"><feFlood flood-opacity="0" result="BackgroundImageFix"></feFlood><feBlend in="SourceGraphic" in2="BackgroundImageFix" result="shape"></feBlend><feGaussianBlur result="effect1_foregroundBlur_876_402" stdDeviation=".5"></feGaussianBlur></filter><linearGradient id="o" x1="16.576" x2="17.297" y1="14.443" y2="24.905" gradientUnits="userSpaceOnUse"><stop stop-color="#ec1183" class="stopColorB6B0BB svgShape"></stop><stop offset="1" stop-color="#ec1183" stop-opacity="0" class="stopColorC6BFCB svgShape"></stop></linearGradient><clipPath id="a"><rect width="68" height="68" fill="#7e257f" transform="scale(-1 1) rotate(-5.494 30.746 776.52)" class="colorfff svgShape"></rect></clipPath></defs></svg></g></svg>