<svg id="SvgjsSvg1016" width="288" height="288" xmlns="http://www.w3.org/2000/svg" version="1.1" xmlns:xlink="http://www.w3.org/1999/xlink" xmlns:svgjs="http://svgjs.com/svgjs"><defs id="SvgjsDefs1017"></defs><g id="SvgjsG1018"><svg xmlns="http://www.w3.org/2000/svg" fill="none" viewBox="0 0 176 144" width="288" height="288"><path stroke="url(#a)" stroke-linecap="round" stroke-width="3" d="M2 129.897C7.47662 121.145 20.6205 107.509 29.3831 122.987C40.3363 142.335 49.9204 158.919 52.6587 109.168C55.397 59.4161 67.7194 38.6862 71.8269 60.7981C75.9343 82.9099 74.5652 84.2916 82.7801 84.2916C90.995 84.2916 93.7333 99.494 93.7333 109.168C93.7333 118.841 112.901 125.751 112.901 102.257C112.901 78.7636 111.532 69.0902 118.378 60.7981C125.224 52.5059 133.439 44.2139 133.439 24.8661C133.439 5.51827 164.416 5.39822 174 2"></path><defs><linearGradient id="a" x1="211.481" x2="1.822" y1="82.889" y2="127.157" gradientUnits="userSpaceOnUse"><stop stop-color="#ec1183" class="stopColorFE7D00 svgShape"></stop><stop offset="1" stop-color="#7e257f" class="stopColor5E3309 svgShape"></stop></linearGradient></defs></svg></g></svg>