<svg width="28" height="28" viewBox="0 0 28 28" fill="none" xmlns="http://www.w3.org/2000/svg">
<g id="Menu" clip-path="url(#clip0_1174_172)">
<g id="Layer 2">
<g id="menu">
<path id="Vector" d="M17.9667 15.1667H4.30606C3.86089 15.1667 3.5 15.6629 3.5 16.275V16.3917C3.5 17.0038 3.86089 17.5 4.30606 17.5H17.9667C18.4118 17.5 18.7727 17.0038 18.7727 16.3917V16.275C18.7727 15.6629 18.4118 15.1667 17.9667 15.1667Z" fill="white"/>
<path id="Vector_2" d="M23.3917 7H4.60833C3.99622 7 3.5 7.49622 3.5 8.10833V8.225C3.5 8.83712 3.99622 9.33333 4.60833 9.33333H23.3917C24.0038 9.33333 24.5 8.83712 24.5 8.225V8.10833C24.5 7.49622 24.0038 7 23.3917 7Z" fill="white"/>
</g>
</g>
</g>
<defs>
<clipPath id="clip0_1174_172">
<rect width="28" height="28" fill="white"/>
</clipPath>
</defs>
</svg>
