<svg id="SvgjsSvg1006" width="288" height="288" xmlns="http://www.w3.org/2000/svg" version="1.1" xmlns:xlink="http://www.w3.org/1999/xlink" xmlns:svgjs="http://svgjs.com/svgjs"><defs id="SvgjsDefs1007"></defs><g id="SvgjsG1008"><svg xmlns="http://www.w3.org/2000/svg" fill="none" viewBox="0 0 524 109" width="288" height="288"><path fill="#7e257f" d="M523.697 100L508.697 91.3397V108.66L523.697 100ZM0.697266 3.5H182.537V0.5H0.697266V3.5ZM205.037 26V76H208.037V26H205.037ZM230.537 101.5H510.197V98.5H230.537V101.5ZM205.037 76C205.037 90.0833 216.453 101.5 230.537 101.5V98.5C218.11 98.5 208.037 88.4264 208.037 76H205.037ZM182.537 3.5C194.963 3.5 205.037 13.5736 205.037 26H208.037C208.037 11.9167 196.62 0.5 182.537 0.5V3.5Z" class="color7e257f svgShape"></path></svg></g></svg>