<svg width="62" height="42" viewBox="0 0 62 42" fill="none" xmlns="http://www.w3.org/2000/svg">
<path id="Vector" d="M56.6368 14.4297C62.4289 6.52802 58.5666 0 58.5666 0L46.755 7.44475C43.4366 5.28451 39.1534 4.45502 35.2866 3.99813C31.018 3.49393 26.6673 3.72164 22.4721 4.6635C19.8942 5.24164 17.1932 5.98685 14.9541 7.44475L3.14106 0C3.14106 0 -0.719866 6.52802 5.07226 14.4297C5.07226 14.4297 -0.719866 19.9271 0.0749014 27.9441C0.0749014 27.9441 12.5683 28.9746 17.6786 41.3431C17.6786 41.3431 27.38 39.1962 28.317 30.0052L28.3111 29.7627L25.2127 26.3871C24.4458 24.9942 25.4488 23.2835 27.0295 23.2909L34.4948 23.3234C36.0051 23.3293 36.9993 24.9144 36.3571 26.2939L33.2205 29.776V30.0052C34.1575 39.1962 44.0276 41.3431 44.0276 41.3431C49.1379 28.9746 61.6312 27.9441 61.6312 27.9441C62.426 19.9271 56.6339 14.4297 56.6339 14.4297H56.6368Z" fill="#EE8432"/>
</svg>
